# xmcd
#
# Track frame offsets:
#	150
#	19555
#	36790
#	51805
#	71205
#	97480
#	116352
#	136412
#	161155
#	180522
#	200927
#
# Disc length: 2959 seconds
#
# Revision: 8
# Processed by: cddbd v1.5.2PL0 Copyright (c) Steve Scherf et al.
# Submitted via: EasyCDDAExtractor 15.3.0.1
#
DISCID=a20b8d0b
DTITLE=Jennifer Lopez - J To Tha L-O! The Remixes
DYEAR=2002
DGENRE=Pop
TTITLE0=Love Don't Cost A Thing (RJ Schoolyard Mix Featuring Fat Joe)
TTITLE1=Ain't It Funny (Murder Remix Featuring Ja Rule and Caddillac Tah)
TTITLE2=I'm Gonna Be Alright (Track Masters Remix)
TTITLE3=I'm Real (Murder Remix Featuring Ja Rule)
TTITLE4=Walking On Sunshine (Metro Remix)
TTITLE5=If You Had My Love (Dark Child Master Mix)
TTITLE6=Feelin' So Good (Bad Boy Remix Featuring P. Diddy and G. Dep)
TTITLE7=Let's Get Loud (Pablo Flores Remix)
TTITLE8=Play (Sack International Remix)
TTITLE9=Waiting For Tonight (Hex's Momentous Radio Mix)
TTITLE10=Alive
EXTD=
EXTT0=
EXTT1=
EXTT2=
EXTT3=
EXTT4=
EXTT5=
EXTT6=
EXTT7=
EXTT8=
EXTT9=
EXTT10=
PLAYORDER=
